<?xml version="1.0" encoding="UTF-8" standalone="no"?><svg xmlns="http://www.w3.org/2000/svg" xmlns:xlink="http://www.w3.org/1999/xlink" contentStyleType="text/css" height="382px" preserveAspectRatio="none" style="width:391px;height:382px;background:#FFFFFF;" version="1.1" viewBox="0 0 391 382" width="391px" zoomAndPan="magnify"><defs/><g><!--MD5=[7442f3b126ee602ae02566c1a49e158a]
cluster api--><g id="cluster_api"><path d="M8.5,6 L34.5,6 A3.75,3.75 0 0 1 37,8.5 L44,28.2969 L381.5,28.2969 A2.5,2.5 0 0 1 384,30.7969 L384,372.5 A2.5,2.5 0 0 1 381.5,375 L8.5,375 A2.5,2.5 0 0 1 6,372.5 L6,8.5 A2.5,2.5 0 0 1 8.5,6 " style="stroke:#000000;stroke-width:1.5;fill:none;"/><line style="stroke:#000000;stroke-width:1.5;fill:none;" x1="6" x2="44" y1="28.2969" y2="28.2969"/><text fill="#000000" font-family="sans-serif" font-size="14" font-weight="bold" lengthAdjust="spacing" textLength="25" x="10" y="20.9951">api</text></g><!--MD5=[9e219ffa4444db626374d642e5b00763]
class api.api--><g id="elem_api.api"><rect codeLine="2" fill="#F1F1F1" height="129.4844" id="api.api" rx="2.5" ry="2.5" style="stroke:#181818;stroke-width:0.5;" width="346" x="22" y="41"/><ellipse cx="179.75" cy="57" fill="#7FFFD4" rx="11" ry="11" style="stroke:#A80036;stroke-width:1.0;"/><path d="M183.5313,52.9688 C183.5313,52.5313 183.5156,52.3906 183.4219,52.2344 C183.2813,52 183,51.8438 182.7031,51.8438 C182.3594,51.8438 182.2188,51.9844 182.0469,52.4063 C181.4531,52.0313 180.7031,51.8438 179.8281,51.8438 C177.7188,51.8438 176.1406,53.1406 176.1406,54.8594 C176.1406,55.8281 176.6719,56.7344 177.5313,57.2188 C178.0781,57.5313 178.625,57.7031 179.7344,57.8906 C180.8906,58.0938 181.1563,58.1563 181.5156,58.3438 C181.8906,58.5469 182.125,58.8906 182.125,59.25 C182.125,59.9844 181.1406,60.5313 179.8906,60.5313 C178.7656,60.5313 177.6875,60.0469 177.5156,59.4375 C177.3906,58.9688 177.3906,58.9688 177.2656,58.8594 C177.1094,58.7031 176.8906,58.6094 176.6563,58.6094 C176.375,58.6094 176.125,58.7344 175.9531,58.9531 C175.8438,59.125 175.7969,59.3125 175.7969,59.7344 L175.7969,60.8594 C175.7969,61.625 176.0781,61.9844 176.6719,61.9844 C176.9375,61.9844 177.0625,61.9219 177.3438,61.5781 C178.1875,62.0156 179.0781,62.2344 180,62.2344 C182.3281,62.2344 183.8906,61.0469 183.8906,59.2813 C183.8906,58.3906 183.5781,57.7031 182.8906,57.1563 C182.3594,56.7344 181.7188,56.4844 180.2344,56.2188 C178.9688,55.9844 178.875,55.9531 178.5469,55.7813 C178.1719,55.5938 177.9063,55.2031 177.9063,54.8438 C177.9063,54.1094 178.7656,53.5469 179.8281,53.5469 C180.8906,53.5469 181.7031,54.0156 181.8594,54.6875 C181.9688,55.2344 181.9688,55.2344 182.0938,55.375 C182.2344,55.5 182.4688,55.6094 182.7031,55.6094 C182.9688,55.6094 183.2188,55.4688 183.3906,55.25 C183.5,55.0781 183.5313,54.9375 183.5313,54.4688 L183.5313,52.9688 Z " fill="#000000"/><text fill="#000000" font-family="sans-serif" font-size="14" lengthAdjust="spacing" textLength="22" x="200.25" y="61.8467">api</text><line style="stroke:#181818;stroke-width:0.5;" x1="23" x2="367" y1="73" y2="73"/><line style="stroke:#181818;stroke-width:0.5;" x1="23" x2="367" y1="81" y2="81"/><rect fill="#F24D5C" height="6" style="stroke:#C82930;stroke-width:1.0;" width="6" x="30" y="89"/><text fill="#000000" font-family="sans-serif" font-size="14" lengthAdjust="spacing" textLength="281" x="42" y="97.9951">getAll(c *gin.Context, resources string)</text><rect fill="#F24D5C" height="6" style="stroke:#C82930;stroke-width:1.0;" width="6" x="30" y="105.2969"/><text fill="#000000" font-family="sans-serif" font-size="14" lengthAdjust="spacing" textLength="294" x="42" y="114.292">getById(c *gin.Context, resources string)</text><rect fill="#F24D5C" height="6" style="stroke:#C82930;stroke-width:1.0;" width="6" x="30" y="121.5938"/><text fill="#000000" font-family="sans-serif" font-size="14" lengthAdjust="spacing" textLength="285" x="42" y="130.5889">create(c *gin.Context, resources string)</text><rect fill="#F24D5C" height="6" style="stroke:#C82930;stroke-width:1.0;" width="6" x="30" y="137.8906"/><text fill="#000000" font-family="sans-serif" font-size="14" lengthAdjust="spacing" textLength="316" x="42" y="146.8857">deleteById(c *gin.Context, resources string)</text><rect fill="#F24D5C" height="6" style="stroke:#C82930;stroke-width:1.0;" width="6" x="30" y="154.1875"/><text fill="#000000" font-family="sans-serif" font-size="14" lengthAdjust="spacing" textLength="320" x="42" y="163.1826">updateById(c *gin.Context, resources string)</text></g><!--MD5=[3be46033d7ae310cf3b80ee816ac9ce0]
class api.contacts--><g id="elem_api.contacts"><rect codeLine="10" fill="#F1F1F1" height="129.4844" id="api.contacts" rx="2.5" ry="2.5" style="stroke:#181818;stroke-width:0.5;" width="238" x="76" y="230"/><ellipse cx="159.25" cy="246" fill="#7FFFD4" rx="11" ry="11" style="stroke:#A80036;stroke-width:1.0;"/><path d="M163.0313,241.9688 C163.0313,241.5313 163.0156,241.3906 162.9219,241.2344 C162.7813,241 162.5,240.8438 162.2031,240.8438 C161.8594,240.8438 161.7188,240.9844 161.5469,241.4063 C160.9531,241.0313 160.2031,240.8438 159.3281,240.8438 C157.2188,240.8438 155.6406,242.1406 155.6406,243.8594 C155.6406,244.8281 156.1719,245.7344 157.0313,246.2188 C157.5781,246.5313 158.125,246.7031 159.2344,246.8906 C160.3906,247.0938 160.6563,247.1563 161.0156,247.3438 C161.3906,247.5469 161.625,247.8906 161.625,248.25 C161.625,248.9844 160.6406,249.5313 159.3906,249.5313 C158.2656,249.5313 157.1875,249.0469 157.0156,248.4375 C156.8906,247.9688 156.8906,247.9688 156.7656,247.8594 C156.6094,247.7031 156.3906,247.6094 156.1563,247.6094 C155.875,247.6094 155.625,247.7344 155.4531,247.9531 C155.3438,248.125 155.2969,248.3125 155.2969,248.7344 L155.2969,249.8594 C155.2969,250.625 155.5781,250.9844 156.1719,250.9844 C156.4375,250.9844 156.5625,250.9219 156.8438,250.5781 C157.6875,251.0156 158.5781,251.2344 159.5,251.2344 C161.8281,251.2344 163.3906,250.0469 163.3906,248.2813 C163.3906,247.3906 163.0781,246.7031 162.3906,246.1563 C161.8594,245.7344 161.2188,245.4844 159.7344,245.2188 C158.4688,244.9844 158.375,244.9531 158.0469,244.7813 C157.6719,244.5938 157.4063,244.2031 157.4063,243.8438 C157.4063,243.1094 158.2656,242.5469 159.3281,242.5469 C160.3906,242.5469 161.2031,243.0156 161.3594,243.6875 C161.4688,244.2344 161.4688,244.2344 161.5938,244.375 C161.7344,244.5 161.9688,244.6094 162.2031,244.6094 C162.4688,244.6094 162.7188,244.4688 162.8906,244.25 C163,244.0781 163.0313,243.9375 163.0313,243.4688 L163.0313,241.9688 Z " fill="#000000"/><text fill="#000000" font-family="sans-serif" font-size="14" lengthAdjust="spacing" textLength="63" x="179.75" y="250.8467">contacts</text><line style="stroke:#181818;stroke-width:0.5;" x1="77" x2="313" y1="262" y2="262"/><line style="stroke:#181818;stroke-width:0.5;" x1="77" x2="313" y1="270" y2="270"/><rect fill="#F24D5C" height="6" style="stroke:#C82930;stroke-width:1.0;" width="6" x="84" y="278"/><text fill="#000000" font-family="sans-serif" font-size="14" lengthAdjust="spacing" textLength="173" x="96" y="286.9951">getAll(ctx *gin.Context)</text><rect fill="#F24D5C" height="6" style="stroke:#C82930;stroke-width:1.0;" width="6" x="84" y="294.2969"/><text fill="#000000" font-family="sans-serif" font-size="14" lengthAdjust="spacing" textLength="186" x="96" y="303.292">getById(ctx *gin.Context)</text><rect fill="#F24D5C" height="6" style="stroke:#C82930;stroke-width:1.0;" width="6" x="84" y="310.5938"/><text fill="#000000" font-family="sans-serif" font-size="14" lengthAdjust="spacing" textLength="177" x="96" y="319.5889">create(ctx *gin.Context)</text><rect fill="#F24D5C" height="6" style="stroke:#C82930;stroke-width:1.0;" width="6" x="84" y="326.8906"/><text fill="#000000" font-family="sans-serif" font-size="14" lengthAdjust="spacing" textLength="208" x="96" y="335.8857">deleteById(ctx *gin.Context)</text><rect fill="#F24D5C" height="6" style="stroke:#C82930;stroke-width:1.0;" width="6" x="84" y="343.1875"/><text fill="#000000" font-family="sans-serif" font-size="14" lengthAdjust="spacing" textLength="212" x="96" y="352.1826">updateById(ctx *gin.Context)</text></g><!--MD5=[52ac931eb8aa881e9bdcb6c4a59e7469]
reverse link api.api to api.contacts--><g id="link_api.api_api.contacts"><path codeLine="19" d="M195,183.417 C195,198.835 195,214.876 195,229.788 " fill="none" id="api.api-backto-api.contacts" style="stroke:#181818;stroke-width:1.0;"/><polygon fill="#181818" points="195,170.071,191,176.071,195,182.071,199,176.071,195,170.071" style="stroke:#181818;stroke-width:1.0;"/></g><!--MD5=[c22d3cc8430f597f6c1e030af812d7c3]
@startuml
namespace api {
    class api << (S,Aquamarine) >> {
        - getAll(c *gin.Context, resources string)
        - getById(c *gin.Context, resources string)
        - create(c *gin.Context, resources string)
        - deleteById(c *gin.Context, resources string)
        - updateById(c *gin.Context, resources string)

    }
    class contacts << (S,Aquamarine) >> {
        - getAll(ctx *gin.Context)
        - getById(ctx *gin.Context)
        - create(ctx *gin.Context)
        - deleteById(ctx *gin.Context)
        - updateById(ctx *gin.Context)

    }
}
"api.api" *- - "api.contacts"
@enduml

PlantUML version 1.2022.4beta2(Unknown compile time)
(GPL source distribution)
Java Runtime: Java(TM) SE Runtime Environment
JVM: Java HotSpot(TM) 64-Bit Server VM
Default Encoding: UTF-8
Language: en
Country: US
--></g></svg>