<?xml version="1.0" encoding="UTF-8" standalone="no"?><svg xmlns="http://www.w3.org/2000/svg" xmlns:xlink="http://www.w3.org/1999/xlink" contentStyleType="text/css" height="556px" preserveAspectRatio="none" style="width:864px;height:556px;background:#FFFFFF;" version="1.1" viewBox="0 0 864 556" width="864px" zoomAndPan="magnify"><defs/><g><!--MD5=[a60570e4b426f702ccbb0d459e3b9417]
cluster models--><g id="cluster_models"><path d="M8.5,6 L67.5,6 A3.75,3.75 0 0 1 70,8.5 L77,28.2969 L854.5,28.2969 A2.5,2.5 0 0 1 857,30.7969 L857,546.5 A2.5,2.5 0 0 1 854.5,549 L8.5,549 A2.5,2.5 0 0 1 6,546.5 L6,8.5 A2.5,2.5 0 0 1 8.5,6 " style="stroke:#000000;stroke-width:1.5;fill:none;"/><line style="stroke:#000000;stroke-width:1.5;fill:none;" x1="6" x2="77" y1="28.2969" y2="28.2969"/><text fill="#000000" font-family="sans-serif" font-size="14" font-weight="bold" lengthAdjust="spacing" textLength="58" x="10" y="20.9951">models</text></g><!--MD5=[f1f13706ba7134324e84c26e115f17a6]
class models.contactLinker--><g id="elem_models.contactLinker"><rect codeLine="2" fill="#F1F1F1" height="145.7813" id="models.contactLinker" rx="2.5" ry="2.5" style="stroke:#181818;stroke-width:0.5;" width="392" x="235" y="165"/><ellipse cx="378.25" cy="181" fill="#B4A7E5" rx="11" ry="11" style="stroke:#181818;stroke-width:1.0;"/><path d="M379.2031,177.7813 L380.9219,177.7813 C381.3125,177.7813 381.5,177.75 381.625,177.6719 C381.8906,177.5156 382.0313,177.2344 382.0313,176.9375 C382.0313,176.6719 381.9219,176.4063 381.6875,176.2344 C381.5156,176.125 381.375,176.0938 380.9219,176.0938 L375.7813,176.0938 C375.3438,176.0938 375.2188,176.1094 375.0625,176.2031 C374.8125,176.3594 374.6563,176.6563 374.6563,176.9375 C374.6563,177.2188 374.7969,177.4688 375.0156,177.6406 C375.1719,177.75 375.3594,177.7813 375.7813,177.7813 L377.5,177.7813 L377.5,184.2969 L375.7813,184.2969 C375.3438,184.2969 375.2188,184.3125 375.0625,184.4219 C374.8125,184.5781 374.6563,184.8594 374.6563,185.1563 C374.6563,185.4063 374.7969,185.6719 375.0156,185.8281 C375.1719,185.9531 375.375,186 375.7813,186 L380.9219,186 C381.6719,186 382.0313,185.7188 382.0313,185.1563 C382.0313,184.875 381.9219,184.625 381.6875,184.4531 C381.5156,184.3281 381.375,184.2969 380.9219,184.2969 L379.2031,184.2969 L379.2031,177.7813 Z " fill="#000000"/><text fill="#000000" font-family="sans-serif" font-size="14" font-style="italic" lengthAdjust="spacing" textLength="97" x="398.75" y="185.8467">contactLinker</text><line style="stroke:#181818;stroke-width:0.5;" x1="236" x2="626" y1="197" y2="197"/><line style="stroke:#181818;stroke-width:0.5;" x1="236" x2="626" y1="205" y2="205"/><ellipse cx="246" cy="216" fill="#84BE84" rx="3" ry="3" style="stroke:#038048;stroke-width:1.0;"/><text fill="#000000" font-family="sans-serif" font-size="14" lengthAdjust="spacing" textLength="74" x="255" y="221.9951">Init() error</text><ellipse cx="246" cy="232.2969" fill="#84BE84" rx="3" ry="3" style="stroke:#038048;stroke-width:1.0;"/><text fill="#000000" font-family="sans-serif" font-size="14" lengthAdjust="spacing" textLength="186" x="255" y="238.292">GetAll() (*[]contact, error)</text><ellipse cx="246" cy="248.5938" fill="#84BE84" rx="3" ry="3" style="stroke:#038048;stroke-width:1.0;"/><text fill="#000000" font-family="sans-serif" font-size="14" lengthAdjust="spacing" textLength="234" x="255" y="254.5889">GetById(id uint) (*contact, error)</text><ellipse cx="246" cy="264.8906" fill="#84BE84" rx="3" ry="3" style="stroke:#038048;stroke-width:1.0;"/><text fill="#000000" font-family="sans-serif" font-size="14" lengthAdjust="spacing" textLength="279" x="255" y="270.8857">Create(data *contact) (*contact, error)</text><ellipse cx="246" cy="281.1875" fill="#84BE84" rx="3" ry="3" style="stroke:#038048;stroke-width:1.0;"/><text fill="#000000" font-family="sans-serif" font-size="14" lengthAdjust="spacing" textLength="175" x="255" y="287.1826">DeleteById(id uint) error</text><ellipse cx="246" cy="297.4844" fill="#84BE84" rx="3" ry="3" style="stroke:#038048;stroke-width:1.0;"/><text fill="#000000" font-family="sans-serif" font-size="14" lengthAdjust="spacing" textLength="366" x="255" y="303.4795">UpdateById(id uint, data *contact) (*contact, error)</text></g><!--MD5=[164bd3a77d80514b84cd939d1d7af75f]
class models.contactModel--><g id="elem_models.contactModel"><rect codeLine="11" fill="#F1F1F1" height="162.0781" id="models.contactModel" rx="2.5" ry="2.5" style="stroke:#181818;stroke-width:0.5;" width="392" x="22" y="371"/><ellipse cx="164.25" cy="387" fill="#7FFFD4" rx="11" ry="11" style="stroke:#A80036;stroke-width:1.0;"/><path d="M168.0313,382.9688 C168.0313,382.5313 168.0156,382.3906 167.9219,382.2344 C167.7813,382 167.5,381.8438 167.2031,381.8438 C166.8594,381.8438 166.7188,381.9844 166.5469,382.4063 C165.9531,382.0313 165.2031,381.8438 164.3281,381.8438 C162.2188,381.8438 160.6406,383.1406 160.6406,384.8594 C160.6406,385.8281 161.1719,386.7344 162.0313,387.2188 C162.5781,387.5313 163.125,387.7031 164.2344,387.8906 C165.3906,388.0938 165.6563,388.1563 166.0156,388.3438 C166.3906,388.5469 166.625,388.8906 166.625,389.25 C166.625,389.9844 165.6406,390.5313 164.3906,390.5313 C163.2656,390.5313 162.1875,390.0469 162.0156,389.4375 C161.8906,388.9688 161.8906,388.9688 161.7656,388.8594 C161.6094,388.7031 161.3906,388.6094 161.1563,388.6094 C160.875,388.6094 160.625,388.7344 160.4531,388.9531 C160.3438,389.125 160.2969,389.3125 160.2969,389.7344 L160.2969,390.8594 C160.2969,391.625 160.5781,391.9844 161.1719,391.9844 C161.4375,391.9844 161.5625,391.9219 161.8438,391.5781 C162.6875,392.0156 163.5781,392.2344 164.5,392.2344 C166.8281,392.2344 168.3906,391.0469 168.3906,389.2813 C168.3906,388.3906 168.0781,387.7031 167.3906,387.1563 C166.8594,386.7344 166.2188,386.4844 164.7344,386.2188 C163.4688,385.9844 163.375,385.9531 163.0469,385.7813 C162.6719,385.5938 162.4063,385.2031 162.4063,384.8438 C162.4063,384.1094 163.2656,383.5469 164.3281,383.5469 C165.3906,383.5469 166.2031,384.0156 166.3594,384.6875 C166.4688,385.2344 166.4688,385.2344 166.5938,385.375 C166.7344,385.5 166.9688,385.6094 167.2031,385.6094 C167.4688,385.6094 167.7188,385.4688 167.8906,385.25 C168,385.0781 168.0313,384.9375 168.0313,384.4688 L168.0313,382.9688 Z " fill="#000000"/><text fill="#000000" font-family="sans-serif" font-size="14" lengthAdjust="spacing" textLength="99" x="184.75" y="391.8467">contactModel</text><line style="stroke:#181818;stroke-width:0.5;" x1="23" x2="413" y1="403" y2="403"/><ellipse cx="33" cy="414" fill="none" rx="3" ry="3" style="stroke:#038048;stroke-width:1.0;"/><text fill="#000000" font-family="sans-serif" font-size="14" lengthAdjust="spacing" textLength="96" x="42" y="419.9951">DB *gorm.DB</text><line style="stroke:#181818;stroke-width:0.5;" x1="23" x2="413" y1="427.2969" y2="427.2969"/><ellipse cx="33" cy="438.2969" fill="#84BE84" rx="3" ry="3" style="stroke:#038048;stroke-width:1.0;"/><text fill="#000000" font-family="sans-serif" font-size="14" lengthAdjust="spacing" textLength="74" x="42" y="444.292">Init() error</text><ellipse cx="33" cy="454.5938" fill="#84BE84" rx="3" ry="3" style="stroke:#038048;stroke-width:1.0;"/><text fill="#000000" font-family="sans-serif" font-size="14" lengthAdjust="spacing" textLength="186" x="42" y="460.5889">GetAll() (*[]contact, error)</text><ellipse cx="33" cy="470.8906" fill="#84BE84" rx="3" ry="3" style="stroke:#038048;stroke-width:1.0;"/><text fill="#000000" font-family="sans-serif" font-size="14" lengthAdjust="spacing" textLength="234" x="42" y="476.8857">GetById(id uint) (*contact, error)</text><ellipse cx="33" cy="487.1875" fill="#84BE84" rx="3" ry="3" style="stroke:#038048;stroke-width:1.0;"/><text fill="#000000" font-family="sans-serif" font-size="14" lengthAdjust="spacing" textLength="279" x="42" y="493.1826">Create(data *contact) (*contact, error)</text><ellipse cx="33" cy="503.4844" fill="#84BE84" rx="3" ry="3" style="stroke:#038048;stroke-width:1.0;"/><text fill="#000000" font-family="sans-serif" font-size="14" lengthAdjust="spacing" textLength="175" x="42" y="509.4795">DeleteById(id uint) error</text><ellipse cx="33" cy="519.7813" fill="#84BE84" rx="3" ry="3" style="stroke:#038048;stroke-width:1.0;"/><text fill="#000000" font-family="sans-serif" font-size="14" lengthAdjust="spacing" textLength="366" x="42" y="525.7764">UpdateById(id uint, data *contact) (*contact, error)</text></g><!--MD5=[4f6aa464391862794cfe7cb70a657081]
class models.mockContactModel--><g id="elem_models.mockContactModel"><rect codeLine="22" fill="#F1F1F1" height="162.0781" id="models.mockContactModel" rx="2.5" ry="2.5" style="stroke:#181818;stroke-width:0.5;" width="392" x="449" y="371"/><ellipse cx="570.25" cy="387" fill="#7FFFD4" rx="11" ry="11" style="stroke:#A80036;stroke-width:1.0;"/><path d="M574.0313,382.9688 C574.0313,382.5313 574.0156,382.3906 573.9219,382.2344 C573.7813,382 573.5,381.8438 573.2031,381.8438 C572.8594,381.8438 572.7188,381.9844 572.5469,382.4063 C571.9531,382.0313 571.2031,381.8438 570.3281,381.8438 C568.2188,381.8438 566.6406,383.1406 566.6406,384.8594 C566.6406,385.8281 567.1719,386.7344 568.0313,387.2188 C568.5781,387.5313 569.125,387.7031 570.2344,387.8906 C571.3906,388.0938 571.6563,388.1563 572.0156,388.3438 C572.3906,388.5469 572.625,388.8906 572.625,389.25 C572.625,389.9844 571.6406,390.5313 570.3906,390.5313 C569.2656,390.5313 568.1875,390.0469 568.0156,389.4375 C567.8906,388.9688 567.8906,388.9688 567.7656,388.8594 C567.6094,388.7031 567.3906,388.6094 567.1563,388.6094 C566.875,388.6094 566.625,388.7344 566.4531,388.9531 C566.3438,389.125 566.2969,389.3125 566.2969,389.7344 L566.2969,390.8594 C566.2969,391.625 566.5781,391.9844 567.1719,391.9844 C567.4375,391.9844 567.5625,391.9219 567.8438,391.5781 C568.6875,392.0156 569.5781,392.2344 570.5,392.2344 C572.8281,392.2344 574.3906,391.0469 574.3906,389.2813 C574.3906,388.3906 574.0781,387.7031 573.3906,387.1563 C572.8594,386.7344 572.2188,386.4844 570.7344,386.2188 C569.4688,385.9844 569.375,385.9531 569.0469,385.7813 C568.6719,385.5938 568.4063,385.2031 568.4063,384.8438 C568.4063,384.1094 569.2656,383.5469 570.3281,383.5469 C571.3906,383.5469 572.2031,384.0156 572.3594,384.6875 C572.4688,385.2344 572.4688,385.2344 572.5938,385.375 C572.7344,385.5 572.9688,385.6094 573.2031,385.6094 C573.4688,385.6094 573.7188,385.4688 573.8906,385.25 C574,385.0781 574.0313,384.9375 574.0313,384.4688 L574.0313,382.9688 Z " fill="#000000"/><text fill="#000000" font-family="sans-serif" font-size="14" lengthAdjust="spacing" textLength="141" x="590.75" y="391.8467">mockContactModel</text><line style="stroke:#181818;stroke-width:0.5;" x1="450" x2="840" y1="403" y2="403"/><rect fill="none" height="6" style="stroke:#C82930;stroke-width:1.0;" width="6" x="457" y="411"/><text fill="#000000" font-family="sans-serif" font-size="14" lengthAdjust="spacing" textLength="133" x="469" y="419.9951">contacts []contact</text><line style="stroke:#181818;stroke-width:0.5;" x1="450" x2="840" y1="427.2969" y2="427.2969"/><ellipse cx="460" cy="438.2969" fill="#84BE84" rx="3" ry="3" style="stroke:#038048;stroke-width:1.0;"/><text fill="#000000" font-family="sans-serif" font-size="14" lengthAdjust="spacing" textLength="74" x="469" y="444.292">Init() error</text><ellipse cx="460" cy="454.5938" fill="#84BE84" rx="3" ry="3" style="stroke:#038048;stroke-width:1.0;"/><text fill="#000000" font-family="sans-serif" font-size="14" lengthAdjust="spacing" textLength="186" x="469" y="460.5889">GetAll() (*[]contact, error)</text><ellipse cx="460" cy="470.8906" fill="#84BE84" rx="3" ry="3" style="stroke:#038048;stroke-width:1.0;"/><text fill="#000000" font-family="sans-serif" font-size="14" lengthAdjust="spacing" textLength="234" x="469" y="476.8857">GetById(id uint) (*contact, error)</text><ellipse cx="460" cy="487.1875" fill="#84BE84" rx="3" ry="3" style="stroke:#038048;stroke-width:1.0;"/><text fill="#000000" font-family="sans-serif" font-size="14" lengthAdjust="spacing" textLength="279" x="469" y="493.1826">Create(data *contact) (*contact, error)</text><ellipse cx="460" cy="503.4844" fill="#84BE84" rx="3" ry="3" style="stroke:#038048;stroke-width:1.0;"/><text fill="#000000" font-family="sans-serif" font-size="14" lengthAdjust="spacing" textLength="175" x="469" y="509.4795">DeleteById(id uint) error</text><ellipse cx="460" cy="519.7813" fill="#84BE84" rx="3" ry="3" style="stroke:#038048;stroke-width:1.0;"/><text fill="#000000" font-family="sans-serif" font-size="14" lengthAdjust="spacing" textLength="366" x="469" y="525.7764">UpdateById(id uint, data *contact) (*contact, error)</text></g><!--MD5=[78d3c56e40511122eaa14fb6aac8689b]
class models.models--><g id="elem_models.models"><rect codeLine="33" fill="#F1F1F1" height="64.2969" id="models.models" rx="2.5" ry="2.5" style="stroke:#181818;stroke-width:0.5;" width="196" x="333" y="41"/><ellipse cx="400.75" cy="57" fill="#7FFFD4" rx="11" ry="11" style="stroke:#A80036;stroke-width:1.0;"/><path d="M404.5313,52.9688 C404.5313,52.5313 404.5156,52.3906 404.4219,52.2344 C404.2813,52 404,51.8438 403.7031,51.8438 C403.3594,51.8438 403.2188,51.9844 403.0469,52.4063 C402.4531,52.0313 401.7031,51.8438 400.8281,51.8438 C398.7188,51.8438 397.1406,53.1406 397.1406,54.8594 C397.1406,55.8281 397.6719,56.7344 398.5313,57.2188 C399.0781,57.5313 399.625,57.7031 400.7344,57.8906 C401.8906,58.0938 402.1563,58.1563 402.5156,58.3438 C402.8906,58.5469 403.125,58.8906 403.125,59.25 C403.125,59.9844 402.1406,60.5313 400.8906,60.5313 C399.7656,60.5313 398.6875,60.0469 398.5156,59.4375 C398.3906,58.9688 398.3906,58.9688 398.2656,58.8594 C398.1094,58.7031 397.8906,58.6094 397.6563,58.6094 C397.375,58.6094 397.125,58.7344 396.9531,58.9531 C396.8438,59.125 396.7969,59.3125 396.7969,59.7344 L396.7969,60.8594 C396.7969,61.625 397.0781,61.9844 397.6719,61.9844 C397.9375,61.9844 398.0625,61.9219 398.3438,61.5781 C399.1875,62.0156 400.0781,62.2344 401,62.2344 C403.3281,62.2344 404.8906,61.0469 404.8906,59.2813 C404.8906,58.3906 404.5781,57.7031 403.8906,57.1563 C403.3594,56.7344 402.7188,56.4844 401.2344,56.2188 C399.9688,55.9844 399.875,55.9531 399.5469,55.7813 C399.1719,55.5938 398.9063,55.2031 398.9063,54.8438 C398.9063,54.1094 399.7656,53.5469 400.8281,53.5469 C401.8906,53.5469 402.7031,54.0156 402.8594,54.6875 C402.9688,55.2344 402.9688,55.2344 403.0938,55.375 C403.2344,55.5 403.4688,55.6094 403.7031,55.6094 C403.9688,55.6094 404.2188,55.4688 404.3906,55.25 C404.5,55.0781 404.5313,54.9375 404.5313,54.4688 L404.5313,52.9688 Z " fill="#000000"/><text fill="#000000" font-family="sans-serif" font-size="14" lengthAdjust="spacing" textLength="52" x="421.25" y="61.8467">models</text><line style="stroke:#181818;stroke-width:0.5;" x1="334" x2="528" y1="73" y2="73"/><ellipse cx="344" cy="84" fill="none" rx="3" ry="3" style="stroke:#038048;stroke-width:1.0;"/><text fill="#000000" font-family="sans-serif" font-size="14" lengthAdjust="spacing" textLength="170" x="353" y="89.9951">Contacts contactLinker</text><line style="stroke:#181818;stroke-width:0.5;" x1="334" x2="528" y1="97.2969" y2="97.2969"/></g><!--MD5=[343e0e3978a7c16e07573046dea76804]
link models.models to models.contactLinker--><g id="link_models.models_models.contactLinker"><path codeLine="39" d="M431,105.043 C431,120.578 431,140.146 431,159.421 " fill="none" id="models.models-to-models.contactLinker" style="stroke:#181818;stroke-width:1.0;"/><polygon fill="#181818" points="431,164.846,435,155.846,431,159.846,427,155.846,431,164.846" style="stroke:#181818;stroke-width:1.0;"/></g><!--MD5=[9ca61f1992f6d3dbed79727968dab215]
reverse link models.contactLinker to models.contactModel--><g id="link_models.contactLinker_models.contactModel"><path codeLine="40" d="M344.318,325.275 C329.213,340.309 313.555,355.893 298.621,370.757 " fill="none" id="models.contactLinker-backto-models.contactModel" style="stroke:#181818;stroke-width:1.0;"/><polygon fill="none" points="339.477,320.217,358.591,311.069,349.353,330.14,339.477,320.217" style="stroke:#181818;stroke-width:1.0;"/></g><!--MD5=[398945c07e9ee3cbde53eef31381c7cd]
reverse link models.contactLinker to models.mockContactModel--><g id="link_models.contactLinker_models.mockContactModel"><path codeLine="41" d="M518.089,325.275 C533.265,340.309 548.996,355.893 564,370.757 " fill="none" id="models.contactLinker-backto-models.mockContactModel" style="stroke:#181818;stroke-width:1.0;"/><polygon fill="none" points="513.031,330.118,503.749,311.069,522.884,320.172,513.031,330.118" style="stroke:#181818;stroke-width:1.0;"/></g><!--MD5=[8f03c76d2acebfe2c3efac9ae061dbad]
@startuml
namespace models {
    interface contactLinker  {
        + Init() error
        + GetAll() (*[]contact, error)
        + GetById(id uint) (*contact, error)
        + Create(data *contact) (*contact, error)
        + DeleteById(id uint) error
        + UpdateById(id uint, data *contact) (*contact, error)

    }
    class contactModel << (S,Aquamarine) >> {
        + DB *gorm.DB

        + Init() error
        + GetAll() (*[]contact, error)
        + GetById(id uint) (*contact, error)
        + Create(data *contact) (*contact, error)
        + DeleteById(id uint) error
        + UpdateById(id uint, data *contact) (*contact, error)

    }
    class mockContactModel << (S,Aquamarine) >> {
        - contacts []contact

        + Init() error
        + GetAll() (*[]contact, error)
        + GetById(id uint) (*contact, error)
        + Create(data *contact) (*contact, error)
        + DeleteById(id uint) error
        + UpdateById(id uint, data *contact) (*contact, error)

    }
    class models << (S,Aquamarine) >> {
        + Contacts contactLinker

    }
}

"models.models" -d-> "models.contactLinker"
"models.contactLinker" <|- - "models.contactModel"
"models.contactLinker" <|- - "models.mockContactModel"
@enduml

PlantUML version 1.2022.4beta2(Unknown compile time)
(GPL source distribution)
Java Runtime: Java(TM) SE Runtime Environment
JVM: Java HotSpot(TM) 64-Bit Server VM
Default Encoding: UTF-8
Language: en
Country: US
--></g></svg>